<?xml version="1.0" encoding="UTF-8" standalone="no"?>
<!-- Created with Inkscape (http://www.inkscape.org/) -->

<svg
   width="31.773632mm"
   height="31.769173mm"
   viewBox="0 0 31.773632 31.769173"
   version="1.1"
   id="svg1"
   xml:space="preserve"
   xmlns="http://www.w3.org/2000/svg"
   xmlns:svg="http://www.w3.org/2000/svg"><defs
     id="defs1"><style
       type="text/css"
       id="style1">
   <![CDATA[
    .fil0 {fill:#666666}
    .fil1 {fill:#666666;fill-rule:nonzero}
   ]]>
  </style><style
       type="text/css"
       id="style1-2">
   <![CDATA[
    .fil0 {fill:#666666}
    .fil1 {fill:#666666;fill-rule:nonzero}
   ]]>
  </style><style
       type="text/css"
       id="style1-5">
   <![CDATA[
    .fil0 {fill:#666666}
    .fil1 {fill:#666666;fill-rule:nonzero}
   ]]>
  </style><style
       type="text/css"
       id="style1-8">
   <![CDATA[
    .fil0 {fill:#666666}
    .fil1 {fill:#666666;fill-rule:nonzero}
   ]]>
  </style></defs><g
     id="layer13"
     transform="translate(-5960.7564,-349.11069)"><path
       style="clip-rule:evenodd;fill:#ffffff;fill-rule:evenodd;stroke-width:0.014533;image-rendering:optimizeQuality;shape-rendering:geometricPrecision;text-rendering:geometricPrecision"
       d="m 5966.5445,380.74607 c -2.7666,-0.33014 -4.6947,-1.9316 -5.5106,-4.5765 -0.2596,-0.83802 -0.2775,-1.60977 -0.2775,-11.19836 0,-9.5886 0.026,-10.36035 0.2775,-11.19839 0.6876,-2.22908 2.1559,-3.69702 4.3847,-4.38493 0.8382,-0.25835 1.6098,-0.2772 11.1984,-0.2772 9.5885,0 10.3602,0.0182 11.1981,0.2772 1.2689,0.39186 2.0437,0.88592 2.9896,1.90768 1.0422,1.12581 1.4285,2.12592 1.6235,4.20399 0.086,0.92505 0.1247,5.37726 0.088,10.74943 -0.054,8.30115 -0.086,9.24923 -0.3287,9.99749 -0.3954,1.21515 -0.9004,1.9915 -1.8952,2.91242 -1.085,1.0047 -2.1262,1.42557 -3.9788,1.60883 -1.6348,0.16124 -18.3896,0.14358 -19.7693,-0.0208 z m 10.4183,-6.45794 c 1.0654,-0.40152 2.166,-1.26994 2.8494,-2.24795 0.9776,-1.39932 1.0583,-1.84875 1.1282,-6.27975 0.034,-2.1706 0.083,-3.94613 0.109,-3.94613 0.026,0 0.5443,0.23447 1.1523,0.52125 0.6081,0.28686 1.3931,0.5659 1.7446,0.62022 l 0.6388,0.0994 v -1.95418 -1.95419 l -0.7141,-0.0958 c -1.4924,-0.20123 -3.0675,-1.50986 -3.6278,-3.01371 l -0.284,-0.76298 -1.1448,-0.0436 -1.1448,-0.0441 v 6.9594 c 0,6.44503 -0.026,7.00403 -0.2807,7.56118 -0.4762,1.03143 -1.5301,1.72905 -2.6133,1.72905 -0.6536,0 -1.9838,-0.66862 -2.348,-1.17971 -0.5219,-0.73306 -0.6632,-1.59458 -0.4059,-2.47912 0.3679,-1.26578 1.4377,-2.05457 2.7873,-2.05457 h 0.7593 v -1.58305 c 0,-1.86809 0.026,-1.85152 -1.5831,-1.62082 -2.1842,0.31448 -3.7813,1.47716 -4.7599,3.46448 -0.4676,0.95086 -0.4975,1.10605 -0.4975,2.59285 0,1.4035 0.047,1.6793 0.4053,2.44643 0.8018,1.71154 2.6536,3.18453 4.4808,3.56395 0.9186,0.1911 2.4059,0.0589 3.3526,-0.29839 z"
       id="path903" /></g></svg>
