<?xml version="1.0" encoding="UTF-8" standalone="no"?>
<!-- Created with Inkscape (http://www.inkscape.org/) -->

<svg
   width="28.192944mm"
   height="28.361387mm"
   viewBox="0 0 28.192944 28.361387"
   version="1.1"
   id="svg1"
   xml:space="preserve"
   xmlns="http://www.w3.org/2000/svg"
   xmlns:svg="http://www.w3.org/2000/svg"><defs
     id="defs1"><style
       type="text/css"
       id="style1">
   <![CDATA[
    .fil0 {fill:#666666}
    .fil1 {fill:#666666;fill-rule:nonzero}
   ]]>
  </style><style
       type="text/css"
       id="style1-2">
   <![CDATA[
    .fil0 {fill:#666666}
    .fil1 {fill:#666666;fill-rule:nonzero}
   ]]>
  </style><style
       type="text/css"
       id="style1-5">
   <![CDATA[
    .fil0 {fill:#666666}
    .fil1 {fill:#666666;fill-rule:nonzero}
   ]]>
  </style><style
       type="text/css"
       id="style1-8">
   <![CDATA[
    .fil0 {fill:#666666}
    .fil1 {fill:#666666;fill-rule:nonzero}
   ]]>
  </style></defs><g
     id="layer13"
     transform="translate(-6011.8301,-350.82651)"><path
       style="clip-rule:evenodd;fill:#ffffff;fill-rule:evenodd;stroke-width:0.014533;image-rendering:optimizeQuality;shape-rendering:geometricPrecision;text-rendering:geometricPrecision"
       d="m 6012.7763,375.61013 0.9781,-3.57823 -0.5016,-1.11203 c -2.1255,-4.71004 -1.7607,-9.67284 1.017,-13.84783 2.1063,-3.16521 5.4023,-5.35376 9.1272,-6.05966 1.7531,-0.33199 4.7731,-0.20539 6.42,0.26938 4.7404,1.36663 8.3051,4.92921 9.7574,9.7516 0.3728,1.23865 0.4336,1.74377 0.4463,3.71728 0.026,2.39855 -0.1584,3.41063 -0.9124,5.30172 -0.9519,2.3898 -3.0265,5.00565 -5.0709,6.39581 -2.4828,1.68712 -4.9076,2.44225 -7.9432,2.47172 -2.2961,0.0234 -3.627,-0.23758 -5.7335,-1.12168 l -1.2476,-0.524 -3.6245,0.95686 c -1.993,0.52584 -3.6392,0.95683 -3.6574,0.95683 -0.026,0 0.4069,-1.61023 0.9451,-3.57777 z m 16.0242,0.8067 c 2.2213,-0.55806 3.849,-1.49095 5.5516,-3.18313 1.2691,-1.26121 1.5983,-1.70648 2.2373,-3.02339 0.9431,-1.94406 1.2448,-3.22872 1.2479,-5.31139 0.026,-5.51033 -3.5964,-10.16971 -8.9698,-11.59575 -1.4268,-0.37805 -4.28,-0.37895 -5.7097,0 -7.5069,1.98504 -11.2209,10.18075 -7.7216,17.03883 l 0.6974,1.3671 -0.5616,2.04951 c -0.309,1.12721 -0.5297,2.10154 -0.4905,2.1651 0.041,0.0636 1.035,-0.13969 2.2125,-0.4508 l 2.141,-0.56591 1.4128,0.66997 c 0.7771,0.36837 1.8899,0.77401 2.4731,0.90067 1.6041,0.34949 3.9518,0.32324 5.4796,-0.0605 z m -0.504,-4.6382 c -3.3258,-1.06689 -5.8496,-2.98839 -7.8216,-5.95466 -1.2808,-1.92656 -1.6218,-2.74386 -1.6934,-4.06079 -0.083,-1.49417 0.2363,-2.3999 1.1237,-3.2011 0.5001,-0.45171 0.7818,-0.58112 1.2643,-0.58112 0.3417,0 0.7431,0.0911 0.8926,0.20357 0.2698,0.20226 1.4198,3.07587 1.4211,3.55105 0,0.13631 -0.2929,0.60275 -0.6517,1.03742 -0.3589,0.43421 -0.6517,0.83667 -0.651,0.8942 0,0.37943 1.1921,2.06148 2.0468,2.90183 0.9877,0.97111 2.858,2.17795 3.3752,2.17795 0.1402,0 0.6224,-0.40333 1.0734,-0.89695 0.451,-0.49362 0.9402,-0.89742 1.0871,-0.89742 0.148,0 0.9685,0.37849 1.8251,0.83986 l 1.5576,0.83988 -0.078,0.80397 c -0.099,1.01531 -0.5029,1.55864 -1.5862,2.12501 -0.9609,0.50281 -2.0623,0.57788 -3.1856,0.21733 z"
       id="path904" /></g></svg>
